
<svg xmlns="http://www.w3.org/2000/svg" version="1.1" xmlns:xlink="http://www.w3.org/1999/xlink" preserveAspectRatio="none" x="0px" y="0px" width="550px" height="400px" viewBox="0 0 550 400">
<defs>
<g id="Layer0_0_FILL">
<path fill="#000000" stroke="none" d="
M 50.15 97.3
Q 49.15 96.25 47.4 96.25 45.55 96.25 44.35 97.3 44.05 97.6 43.95 98 43.35 99 43.35 100.35 43.35 102.05 44.35 103.1 45.55 104.3 47.4 104.3 49.15 104.3 50.15 103.1 51.5 102.05 51.5 100.35 51.5 99 50.8 98 50.45 97.6 50.15 97.3 Z"/>
</g>

<g id="Layer0_1_FILL">
<path fill="#000000" stroke="none" d="
M 15.5 23.7
L 2.8 23.7 2.8 102.65 15.5 102.65 15.5 23.7 Z"/>
</g>

<g id="Layer0_2_FILL">
<path fill="#000000" stroke="none" d="
M 152.55 23.7
L 139.85 23.7 139.85 102.65 152.55 102.65 152.55 23.7 Z"/>
</g>

<g id="Layer0_3_FILL">
<path fill="#000000" stroke="none" d="
M 317.05 521.3
L 310.85 521.3 310.85 560.1 317.05 560.1 317.05 521.3 Z"/>
</g>

<g id="Layer0_4_FILL">
<path fill="#000000" stroke="none" d="
M 219.85 39.5
L 205.75 39.5
Q 196.6 58.95 205.5 78.45 205.6 78.7 205.75 79
L 219.6 79
Q 219.4 78.7 219.2 78.45 204.9 58.95 219.85 39.5 Z"/>
</g>

<g id="Layer0_5_FILL">
<path fill="#000000" stroke="none" d="
M 146 115.7
L 138.9 115.7 138.9 157.55 146 157.55 146 115.7 Z"/>
</g>

<g id="Layer0_6_FILL">
<path fill="#000000" stroke="none" d="
M 80.55 116.15
L 73.45 116.15 73.45 158 80.55 158 80.55 116.15 Z"/>
</g>

<g id="Layer0_7_FILL">
<path fill="#000000" stroke="none" d="
M 317.05 521.3
L 310.85 521.3 310.85 560.1 317.05 560.1 317.05 521.3 Z"/>
</g>

<g id="Layer0_8_FILL">
<path fill="#000000" stroke="none" d="
M 390.55 551.05
L 390.55 564.55 392.55 564.55 392.55 551.05 390.55 551.05 Z"/>
</g>

<g id="Layer0_9_FILL">
<path fill="#000000" stroke="none" d="
M 443.95 555.75
Q 445.330078125 553.7306640625 445.4 551.15
L 442.05 551.15
Q 442.261328125 554.1017578125 440.4 555.75
L 443.95 555.75 Z"/>
</g>

<g id="Layer0_10_FILL">
<path fill="#000000" stroke="none" d="
M 441.95 550.8
L 438.5 550.8
Q 435.712109375 555.603515625 438.3 560.4
L 441.85 560.4
Q 438.7427734375 555.4109375 441.95 550.8 Z"/>
</g>

<g id="Layer0_11_FILL">
<path fill="#000000" stroke="none" d="
M 443.9 557.35
Q 443.44921875 559.1400390625 442.2 560.3 444.206640625 560.5119140625 446 559.45
L 443.9 557.35 Z"/>
</g>

<g id="Layer0_12_FILL">
<path fill="#000000" stroke="none" d="
M 317.05 532
L 319.55 536.65 322.4 532 317.05 532 Z"/>
</g>

<g id="Layer0_13_FILL">
<path fill="#000000" stroke="none" d="
M 115.75 57.35
L 115.75 79.25 127.4 79.25 127.4 40.5 99.2 40.5 99.2 53.3
Q 106.15 41.7 115.75 40.6
L 115.75 57.35
M 99 57.35
Q 93 68.35 99 79.25
L 115.75 79.25
Q 99.95 68.15 115.75 57.35
L 99 57.35 Z"/>
</g>

<g id="Layer0_14_FILL">
<path fill="#000000" stroke="none" d="
M 321.7 540.9
L 321.7 551.5
Q 322.1626953125 557.02421875 324.65 560.05
L 331.35 560
Q 327.455859375 556.49140625 327.55 551.85
L 327.55 540.9 321.7 540.9 Z"/>
</g>

<g id="Layer0_15_FILL">
<path fill="#000000" stroke="none" d="
M 337.5 541
L 331.85 541 331.85 560 337.5 559.9 337.5 541 Z"/>
</g>

<g id="Layer0_16_FILL">
<path fill="#000000" stroke="none" d="
M 367.2 560.05
L 372.9 560.05 372.9 541 359.1 541 359.1 547.3
Q 362.5248046875 541.60546875 367.2 541.05
L 367.2 549.3 367.2 560.05
M 359 549.3
Q 356.0513671875 554.675 359 560.05
L 367.2 560.05
Q 359.454296875 554.57578125 367.2 549.3
L 359 549.3 Z"/>
</g>

<g id="Layer0_17_FILL">
<path fill="#000000" stroke="none" d="
M 147.7 123.9
L 152.65 132.7 158.3 123.9 147.7 123.9 Z"/>
</g>

<g id="Layer0_18_FILL">
<path fill="#000000" stroke="none" d="
M 393.4 559.85
L 397.05 559.85
Q 399.2068359375 555.3220703125 396.9 550.6
L 393.4 550.65
Q 397.1 555.95 393.4 559.85 Z"/>
</g>

<g id="Layer0_19_FILL">
<path fill="#000000" stroke="none" d="
M 337.5 541
L 331.85 541 331.85 560 337.5 559.9 337.5 541
M 321.7 540.9
L 321.7 551.5
Q 322.1626953125 557.02421875 324.65 560.05
L 331.35 560
Q 327.455859375 556.49140625 327.55 551.85
L 327.55 540.9 321.7 540.9 Z"/>
</g>

<g id="Layer0_20_MEMBER_0_FILL">
<path fill="#000000" stroke="none" d="
M 354.4 541.05
L 348.4 541.1 351.75 544.55 354.4 541.05 Z"/>
</g>

<g id="Layer0_20_MEMBER_1_FILL">
<path fill="#000000" stroke="none" d="
M 348 541.05
L 341.8 541 341.8 547.2
Q 341.75 548.4 345 551.85 347.8 554.85 347.9 558.2
L 347.9 559.95 354.1 559.95 354.1 555.8
Q 354 552.45 351.2 549.45 347.95 546 348 544.8
L 348 541.05 Z"/>
</g>

<g id="Layer0_20_MEMBER_2_FILL">
<path fill="#000000" stroke="none" d="
M 344 556.8
L 341.25 559.95 347.6 559.95 344 556.8 Z"/>
</g>

<g id="Layer0_21_MEMBER_0_FILL">
<path fill="#000000" stroke="none" d="
M 354.4 541.05
L 348.4 541.1 351.75 544.55 354.4 541.05 Z"/>
</g>

<g id="Layer0_21_MEMBER_1_FILL">
<path fill="#000000" stroke="none" d="
M 348 541.05
L 341.8 541 341.8 547.2
Q 341.75 548.4 345 551.85 347.8 554.85 347.9 558.2
L 347.9 559.95 354.1 559.95 354.1 555.8
Q 354 552.45 351.2 549.45 347.95 546 348 544.8
L 348 541.05 Z"/>
</g>

<g id="Layer0_21_MEMBER_2_FILL">
<path fill="#000000" stroke="none" d="
M 344 556.8
L 341.25 559.95 347.6 559.95 344 556.8 Z"/>
</g>

<g id="Layer0_22_FILL">
<path fill="#339999" stroke="none" d="
M 450.2 569.6
L 459.15 569.6
Q 494.30546875 530.1431640625 452.2 495.2 489.9109375 531.238671875 450.2 569.6 Z"/>
</g>

<g id="Layer0_23_FILL">
<path fill="#339999" stroke="none" d="
M 467.8 506.4
L 472.6 513.7 477.55 513.7 474.8 506.4 467.8 506.4 Z"/>
</g>

<path id="Layer0_1_1_STROKES" stroke="#000000" stroke-width="1" stroke-linejoin="miter" stroke-linecap="square" stroke-miterlimit="3" fill="none" d="
M 2.8 23.7
L 2.8 102.65 15.5 102.65 15.5 23.7 2.8 23.7 Z"/>

<path id="Layer0_2_1_STROKES" stroke="#000000" stroke-width="1" stroke-linejoin="miter" stroke-linecap="square" stroke-miterlimit="3" fill="none" d="
M 139.85 23.7
L 139.85 102.65 152.55 102.65 152.55 23.7 139.85 23.7 Z"/>

<path id="Layer0_3_1_STROKES" stroke="#000000" stroke-width="1" stroke-linejoin="miter" stroke-linecap="square" stroke-miterlimit="3" fill="none" d="
M 220.7353515625 -0.002603149414198924
L 220.7353515625 79.00763854980482 233.4501953125 79.00763854980482 233.4501953125 -0.002603149414198924 220.7353515625 -0.002603149414198924 Z"/>

<path id="Layer0_4_1_STROKES" stroke="#000000" stroke-width="1" stroke-linejoin="miter" stroke-linecap="square" stroke-miterlimit="3" fill="none" d="
M 219.6 79
L 205.75 79
Q 205.6 78.7 205.5 78.45 196.6 58.95 205.75 39.5
L 219.85 39.5
Q 204.9 58.95 219.2 78.45 219.4 78.7 219.6 79 Z"/>

<path id="Layer0_5_1_STROKES" stroke="#000000" stroke-width="1" stroke-linejoin="miter" stroke-linecap="square" stroke-miterlimit="3" fill="none" d="
M 138.9 115.7
L 138.9 157.55 146 157.55 146 115.7 138.9 115.7 Z"/>

<path id="Layer0_7_1_STROKES" stroke="#000000" stroke-width="1" stroke-linejoin="miter" stroke-linecap="square" stroke-miterlimit="3" fill="none" d="
M 44.46264495849613 106.24694366455077
L 44.46264495849613 133.84138336181644 50.827445983886776 133.84138336181644 50.827445983886776 106.24694366455077 44.46264495849613 106.24694366455077 Z"/>

<path id="Layer0_8_1_STROKES" stroke="#000000" stroke-width="1" stroke-linejoin="miter" stroke-linecap="square" stroke-miterlimit="3" fill="none" d="
M -0.020229721069426887 150.88125915527348
L 7.066653823852448 150.88125915527348 7.066653823852448 103.38571472167973 -0.020229721069426887 103.38571472167973 -0.020229721069426887 150.88125915527348 Z"/>

<path id="Layer0_9_1_STROKES" stroke="#000000" stroke-width="1" stroke-linejoin="miter" stroke-linecap="square" stroke-miterlimit="3" fill="none" d="
M 186.0719581604003 118.79787368774419
L 175.199030685425 118.79787368774419
Q 180.86321863532066 113.36646599471555 180.21137313842792 103.63961868286128
L 190.5445098876953 103.63961868286128
Q 190.3288345754147 112.14361084401594 186.0719581604003 118.79787368774419 Z"/>

<path id="Layer0_10_1_STROKES" stroke="#000000" stroke-width="1" stroke-linejoin="miter" stroke-linecap="square" stroke-miterlimit="3" fill="none" d="
M 179.2635192871096 103.67915039062473
Q 168.97894682884203 118.29827632904062 178.94533081054692 134.1955230712888
L 167.64963989257808 134.11625976562482
Q 159.33572301864638 118.90885148048392 168.286016845703 103.67915039062473
L 179.2635192871096 103.67915039062473 Z"/>

<path id="Layer0_11_1_STROKES" stroke="#000000" stroke-width="1" stroke-linejoin="miter" stroke-linecap="square" stroke-miterlimit="3" fill="none" d="
M 185.38864746093736 124.72539978027339
L 192.1501525878905 131.38351745605473
Q 186.3643425941466 134.67108690738655 180.05899047851585 134.07846984863295 183.95431346893315 130.3215130090714 185.38864746093736 124.72539978027339 Z"/>

<path id="Layer0_12_1_STROKES" stroke="#000000" stroke-width="1" stroke-linejoin="round" stroke-linecap="round" fill="none" d="
M 19.53562622070308 24.272185516357467
L 25.35634765624991 14.807360839843795 14.42973022460933 14.807360839843795 19.53562622070308 24.272185516357467 Z"/>

<path id="Layer0_13_1_STROKES" stroke="#000000" stroke-width="1" stroke-linejoin="round" stroke-linecap="round" fill="none" d="
M 115.75 79.25
L 99 79.25
Q 93 68.35 99 57.35
L 115.75 57.35 115.75 40.6
Q 106.15 41.7 99.2 53.3
L 99.2 40.5 127.4 40.5 127.4 79.25 115.75 79.25
Q 99.95 68.15 115.75 57.35
L 115.75 79.25 Z"/>

<path id="Layer0_14_1_STROKES" stroke="#000000" stroke-width="1" stroke-linejoin="miter" stroke-linecap="round" stroke-miterlimit="3" fill="none" d="
M 157.82669677734378 61.59856109619136
Q 158.77168643474573 72.84281097650523 163.85165405273432 79.00162582397456
L 177.5354553222657 78.89985351562495
Q 169.58222451210025 71.75829981565471 169.7744934082031 62.310967254638626
L 169.7744934082031 40.02283172607417 157.82669677734378 40.02283172607417 157.82669677734378 61.59856109619136 Z"/>

<path id="Layer0_15_1_STROKES" stroke="#000000" stroke-width="1" stroke-linejoin="miter" stroke-linecap="round" stroke-miterlimit="3" fill="none" d="
M 190.09595947265626 39.990167236328034
L 190.09595947265626 78.8081878662108 178.55663452148445 79.01357421874991 178.55663452148445 39.990167236328034 190.09595947265626 39.990167236328034 Z"/>

<path id="Layer0_16_1_STROKES" stroke="#000000" stroke-width="1" stroke-linejoin="round" stroke-linecap="round" fill="none" d="
M 108.6174926757812 133.83491058349603
L 96.0078155517578 133.83491058349603
Q 91.47350973188867 125.22142715454095 96.0078155517578 116.60794372558587
L 108.6174926757812 116.60794372558587 108.6174926757812 103.3872482299804
Q 101.42813860476025 104.27739164829256 96.16159210205086 113.40292663574212
L 96.16159210205086 103.3071228027344 117.38275604248037 103.3071228027344 117.38275604248037 133.83491058349603 108.6174926757812 133.83491058349603 Z
M 108.6174926757812 133.83491058349603
Q 96.7064176142216 125.06242825984953 108.6174926757812 116.60794372558587
L 108.6174926757812 133.83491058349603 Z"/>

<path id="Layer0_17_1_STROKES" stroke="#000000" stroke-width="1" stroke-linejoin="round" stroke-linecap="round" fill="none" d="
M 152.65 132.7
L 158.3 123.9 147.7 123.9 152.65 132.7 Z"/>

<path id="Layer0_18_1_STROKES" stroke="#000000" stroke-width="1" stroke-linejoin="miter" stroke-linecap="square" stroke-miterlimit="3" fill="none" d="
M 10.029718017578034 133.590135192871
Q 22.330569458008085 120.72720489501967 10.029718017578034 103.24681243896475
L 21.665658569335847 103.08190307617178
Q 29.334860235452652 118.65617520213141 22.164341735840026 133.590135192871
L 10.029718017578034 133.590135192871 Z"/>

<path id="Layer0_19_1_STROKES" stroke="#000000" stroke-width="1" stroke-linejoin="miter" stroke-linecap="round" stroke-miterlimit="3" fill="none" d="
M 22.17669677734375 61.59856109619136
Q 23.121686434745698 72.84281097650523 28.201654052734284 79.00162582397456
L 41.88545532226567 78.89985351562495
Q 33.93222451210022 71.75829981565471 34.12449340820308 62.310967254638626
L 34.12449340820308 40.02283172607417 22.17669677734375 40.02283172607417 22.17669677734375 61.59856109619136 Z
M 54.44595947265623 40.22637634277339
L 54.44595947265623 78.69630889892574 42.90663452148442 78.89985351562495 42.90663452148442 40.22637634277339 54.44595947265623 40.22637634277339 Z"/>

<path id="Layer0_20_MEMBER_0_1_STROKES" stroke="#000000" stroke-width="1" stroke-linejoin="miter" stroke-linecap="round" stroke-miterlimit="3" fill="none" d="
M 89.01287536621089 40.08237915039058
L 83.5495666503906 47.28959350585933 76.70766601562491 40.18533935546884 89.01287536621089 40.08237915039058 Z"/>

<path id="Layer0_20_MEMBER_1_1_STROKES" stroke="#000000" stroke-width="1" stroke-linejoin="miter" stroke-linecap="round" stroke-miterlimit="3" fill="none" d="
M 63.228100585937455 52.746484375000136
L 63.228100585937455 39.979418945312545 75.89072265624998 40.08237915039058
M 88.3491088867188 70.45563964843745
L 88.3491088867188 79.00133666992201 75.68648681640616 79.00133666992201 75.68648681640616 75.39772949218764
M 75.89072265624998 40.08237915039058
L 75.89072265624998 47.804394531249955
Q 75.78860473632812 50.275439453125045 82.42626953125 57.37969360351576 88.14487304687498 63.55730590820326 88.3491088867188 70.45563964843745
M 75.68648681640616 75.39772949218764
Q 75.48225097656245 68.49939575195322 69.76364746093748 62.321783447265716 63.1259826660156 55.217529296875 63.228100585937455 52.746484375000136"/>

<path id="Layer0_20_MEMBER_2_1_STROKES" stroke="#000000" stroke-width="1" stroke-linejoin="miter" stroke-linecap="round" stroke-miterlimit="3" fill="none" d="
M 67.02128906250005 72.51484374999995
L 74.37377929687511 79.00133666992201 61.40480346679692 79.00133666992201 67.02128906250005 72.51484374999995 Z"/>

<path id="Layer0_21_MEMBER_0_1_STROKES" stroke="#000000" stroke-width="1" stroke-linejoin="miter" stroke-linecap="round" stroke-miterlimit="3" fill="none" d="
M 234.9244392395019 103.38815917968736
L 230.29012908935545 109.01926269531236 224.48641357421866 103.46860351562498 234.9244392395019 103.38815917968736 Z"/>

<path id="Layer0_21_MEMBER_1_1_STROKES" stroke="#000000" stroke-width="1" stroke-linejoin="miter" stroke-linecap="round" stroke-miterlimit="3" fill="none" d="
M 213.05222778320308 113.28281250000009
L 213.05222778320308 103.30771484374998 223.79343261718748 103.38815917968736
M 234.3613922119141 127.11923828124986
L 234.3613922119141 133.7961181640626 223.6201873779296 133.7961181640626 223.6201873779296 130.9805664062501
M 223.79343261718748 103.38815917968736
L 223.79343261718748 109.42148437499986
Q 223.7068099975586 111.35214843749998 229.3372802734375 116.90280761718759 234.18814697265623 121.72946777343759 234.3613922119141 127.11923828124986
M 223.6201873779296 130.9805664062501
Q 223.44694213867183 125.59079589843748 218.5960754394531 120.76413574218748 212.9656051635742 115.21347656249998 213.05222778320308 113.28281250000009"/>

<path id="Layer0_21_MEMBER_2_1_STROKES" stroke="#000000" stroke-width="1" stroke-linejoin="miter" stroke-linecap="round" stroke-miterlimit="3" fill="none" d="
M 213.963623046875 128.72812499999986
L 220.20045166015632 133.7961181640626 209.19937896728516 133.7961181640626 213.963623046875 128.72812499999986 Z"/>

<path id="Layer0_22_1_STROKES" stroke="#009999" stroke-width="1" stroke-linejoin="miter" stroke-linecap="round" stroke-miterlimit="3" fill="none" d="
M 251.79184875488284 134.05976562499995
L 268.4183692932129 134.05976562499995
Q 333.72709814310076 63.00422703027721 255.5072723388672 0.07709960937495453 325.5633256196976 64.97706382274623 251.79184875488284 134.05976562499995 Z"/>

<path id="Layer0_23_1_STROKES" stroke="#009999" stroke-width="1" stroke-linejoin="miter" stroke-linecap="round" stroke-miterlimit="3" fill="none" d="
M 293.4045928955079 33.39268188476569
L 302.6002662658692 33.39268188476569 297.4915588378907 20.246533203124955 284.4875762939454 20.246533203124955 293.4045928955079 33.39268188476569 Z"/>
</defs>

<g transform="matrix( 0.5756378173828125, 0, 0, 0.57550048828125, 0,0) ">
<g transform="matrix( 1, 0, 0, 1, 0,0) ">
<use xlink:href="#Layer0_0_FILL"/>
</g>

<g transform="matrix( 1, 0, 0, 1.000640869140625, -2.8,-23.7) ">
<use xlink:href="#Layer0_1_FILL"/>

<use xlink:href="#Layer0_1_1_STROKES"/>
</g>

<g transform="matrix( 1, 0, 0, 1.000640869140625, -2.8,-23.7) ">
<use xlink:href="#Layer0_2_FILL"/>

<use xlink:href="#Layer0_2_1_STROKES"/>
</g>

<g transform="matrix( 2.05078125, 0, 0, 2.036346435546875, -416.75,-1061.55) ">
<use xlink:href="#Layer0_3_FILL"/>

<use xlink:href="#Layer0_3_1_STROKES" transform="matrix( 0.4876251220703125, 0, 0, 0.4910736083984375, 203.2,521.3) "/>
</g>

<g transform="matrix( 1, 0, 0, 0.987335205078125, -0.65,1) ">
<use xlink:href="#Layer0_4_FILL"/>

<use xlink:href="#Layer0_4_1_STROKES"/>
</g>

<g transform="matrix( 1, 0, 0, 1, -2.8,-24.05) ">
<use xlink:href="#Layer0_5_FILL"/>

<use xlink:href="#Layer0_5_1_STROKES"/>
</g>

<g transform="matrix( 1, 0, 0, 1, -2.8,-24.05) ">
<use xlink:href="#Layer0_6_FILL"/>
</g>

<g transform="matrix( 1.026580810546875, 0, 0, 0.7111968994140625, -274.65,-264.5) ">
<use xlink:href="#Layer0_7_FILL"/>

<use xlink:href="#Layer0_7_1_STROKES" transform="matrix( 0.9741058349609375, 0, 0, 1.4060821533203125, 267.55,371.9) "/>
</g>

<g transform="matrix( 3.5434417724609375, 0, 0, 3.5181884765625, -1384,-1835.4) ">
<use xlink:href="#Layer0_8_FILL"/>

<use xlink:href="#Layer0_8_1_STROKES" transform="matrix( 0.2822113037109375, 0, 0, 0.28424072265625, 390.6,521.7) "/>
</g>

<g transform="matrix( 3.0845184326171875, 0, 0, 3.2952728271484375, -1183.3,-1712.55) ">
<use xlink:href="#Layer0_9_FILL"/>

<use xlink:href="#Layer0_9_1_STROKES" transform="matrix( 0.3242034912109375, 0, 0, 0.303466796875, 383.65,519.7) "/>
</g>

<g transform="matrix( 3.181884765625, 0, 0, 3.1705322265625, -1227.05,-1642.65) ">
<use xlink:href="#Layer0_10_FILL"/>

<use xlink:href="#Layer0_10_1_STROKES" transform="matrix( 0.3142852783203125, 0, 0, 0.315399169921875, 385.65,518.1) "/>
</g>

<g transform="matrix( 3.181884765625, 0, 0, 3.1705322265625, -1227.05,-1642.45) ">
<use xlink:href="#Layer0_11_FILL"/>

<use xlink:href="#Layer0_11_1_STROKES" transform="matrix( 0.3142852783203125, 0, 0, 0.315399169921875, 385.65,518.05) "/>
</g>

<g transform="matrix( 2.0423583984375, 0, 0, 2.0354461669921875, -633.1,-1068.05) ">
<use xlink:href="#Layer0_12_FILL"/>

<use xlink:href="#Layer0_12_1_STROKES" transform="matrix( 0.4896240234375, 0, 0, 0.4912872314453125, 310,524.7) "/>
</g>

<g transform="matrix( 1, 0, 0, 1.0064544677734375, -0.65,-0.75) ">
<use xlink:href="#Layer0_13_FILL"/>

<use xlink:href="#Layer0_13_1_STROKES"/>
</g>

<g transform="matrix( 2.0423583984375, 0, 0, 2.0354461669921875, -499.2,-1060.95) ">
<use xlink:href="#Layer0_14_FILL"/>

<use xlink:href="#Layer0_14_1_STROKES" transform="matrix( 0.4896240234375, 0, 0, 0.4912872314453125, 244.4,521.25) "/>
</g>

<g transform="matrix( 2.0423583984375, 0, 0, 2.053863525390625, -499.2,-1071.15) ">
<use xlink:href="#Layer0_15_FILL"/>

<use xlink:href="#Layer0_15_1_STROKES" transform="matrix( 0.4896240234375, 0, 0, 0.4868927001953125, 244.4,521.55) "/>
</g>

<g transform="matrix( 1.5377655029296875, 0, 0, 1.602508544921875, -456.05,-763.65) ">
<use xlink:href="#Layer0_16_FILL"/>

<use xlink:href="#Layer0_16_1_STROKES" transform="matrix( 0.650299072265625, 0, 0, 0.6240234375, 296.55,476.55) "/>
</g>

<g transform="matrix( 1, 0, 0, 1, -2.8,-24.05) ">
<use xlink:href="#Layer0_17_FILL"/>

<use xlink:href="#Layer0_17_1_STROKES"/>
</g>

<g transform="matrix( 3.324554443359375, 0, 0, 3.298187255859375, -1297.85,-1712.9) ">
<use xlink:href="#Layer0_18_FILL"/>

<use xlink:href="#Layer0_18_1_STROKES" transform="matrix( 0.3007965087890625, 0, 0, 0.303192138671875, 390.4,519.35) "/>
</g>

<g transform="matrix( 2.0423583984375, 0, 0, 2.0354461669921875, -634.85,-1060.95) ">
<use xlink:href="#Layer0_19_FILL"/>

<use xlink:href="#Layer0_19_1_STROKES" transform="matrix( 0.4896240234375, 0, 0, 0.4912872314453125, 310.85,521.25) "/>
</g>

<g transform="matrix( 2.0423583984375, 0, 0, 2.0592041015625, -634.85,-1074.05) ">
<use xlink:href="#Layer0_20_MEMBER_0_FILL"/>

<use xlink:href="#Layer0_20_MEMBER_0_1_STROKES" transform="matrix( 0.4896240234375, 0, 0, 0.485626220703125, 310.85,521.6) "/>
</g>

<g transform="matrix( 2.0423583984375, 0, 0, 2.0592041015625, -634.85,-1074.05) ">
<use xlink:href="#Layer0_20_MEMBER_1_FILL"/>

<use xlink:href="#Layer0_20_MEMBER_1_1_STROKES" transform="matrix( 0.4896240234375, 0, 0, 0.485626220703125, 310.85,521.6) "/>
</g>

<g transform="matrix( 2.0423583984375, 0, 0, 2.0592041015625, -635.55,-1074.05) ">
<use xlink:href="#Layer0_20_MEMBER_2_FILL"/>

<use xlink:href="#Layer0_20_MEMBER_2_1_STROKES" transform="matrix( 0.4896240234375, 0, 0, 0.485626220703125, 311.2,521.6) "/>
</g>

<g transform="matrix( 1.732452392578125, 0, 0, 1.60888671875, -379.1,-767.1) ">
<use xlink:href="#Layer0_21_MEMBER_0_FILL"/>

<use xlink:href="#Layer0_21_MEMBER_0_1_STROKES" transform="matrix( 0.57720947265625, 0, 0, 0.621551513671875, 218.8,476.8) "/>
</g>

<g transform="matrix( 1.732452392578125, 0, 0, 1.60888671875, -379.1,-767.1) ">
<use xlink:href="#Layer0_21_MEMBER_1_FILL"/>

<use xlink:href="#Layer0_21_MEMBER_1_1_STROKES" transform="matrix( 0.57720947265625, 0, 0, 0.621551513671875, 218.8,476.8) "/>
</g>

<g transform="matrix( 1.732452392578125, 0, 0, 1.60888671875, -382,-767.1) ">
<use xlink:href="#Layer0_21_MEMBER_2_FILL"/>

<use xlink:href="#Layer0_21_MEMBER_2_1_STROKES" transform="matrix( 0.57720947265625, 0, 0, 0.621551513671875, 220.5,476.8) "/>
</g>

<g transform="matrix( 1.8577117919921875, 0, 0, 1.80084228515625, -584.55,-891.7) ">
<use xlink:href="#Layer0_22_FILL"/>

<use xlink:href="#Layer0_22_1_STROKES" transform="matrix( 0.538299560546875, 0, 0, 0.5552978515625, 314.65,495.15) "/>
</g>

<g transform="matrix( 1.8577117919921875, 0, 0, 1.80084228515625, -584.55,-891.7) ">
<use xlink:href="#Layer0_23_FILL"/>

<use xlink:href="#Layer0_23_1_STROKES" transform="matrix( 0.538299560546875, 0, 0, 0.5552978515625, 314.65,495.15) "/>
</g>
</g>
</svg>
